<svg xmlns="http://www.w3.org/2000/svg" width="22.979" height="22.979" viewBox="0 0 22.979 22.979"><defs><style>.a{fill:#fff;}.b{fill:#58964f;}</style></defs><g transform="translate(-11233.5 -536.643)"><path class="a" d="M22.979,11.489A11.489,11.489,0,1,1,11.489,0,11.489,11.489,0,0,1,22.979,11.489" transform="translate(11233.5 536.643)"/><g transform="translate(18481.65 4260)"><path class="b" d="M62.873,31.085a.79.79,0,1,0,.79.79.79.79,0,0,0-.79-.79" transform="translate(-7295.968 -3747.299)"/><path class="b" d="M39.121,35.493a3.317,3.317,0,1,0,3.317,3.317,3.321,3.321,0,0,0-3.317-3.317m0,5.442a2.125,2.125,0,1,1,2.125-2.125,2.127,2.127,0,0,1-2.125,2.125" transform="translate(-7275.727 -3750.694)"/><path class="b" d="M30.113,34.088H24.734a4.051,4.051,0,0,1-4.046-4.046V24.664a4.051,4.051,0,0,1,4.046-4.047h5.378a4.051,4.051,0,0,1,4.047,4.047v5.378a4.051,4.051,0,0,1-4.047,4.046m-5.378-12.2a2.782,2.782,0,0,0-2.779,2.779v5.378a2.782,2.782,0,0,0,2.779,2.779h5.378a2.782,2.782,0,0,0,2.779-2.779V24.664a2.782,2.782,0,0,0-2.779-2.779Z" transform="translate(-7264.084 -3739.237)"/></g></g></svg>