<svg xmlns="http://www.w3.org/2000/svg" width="22.979" height="22.979" viewBox="0 0 22.979 22.979"><defs><style>.a{fill:#fff;}.b{fill:#4e9f3d;}.b,.d{fill-rule:evenodd;}.c,.d{fill:#58964f;}</style></defs><g transform="translate(-11169.16 -536.643)"><path class="a" d="M22.979,11.489A11.489,11.489,0,1,1,11.489,0,11.489,11.489,0,0,1,22.979,11.489" transform="translate(11169.16 536.643)"/><path class="b" d="M44.031,39.676a1.11,1.11,0,0,0-.945-.213c-.245.1-.4.485-.561.681a.235.235,0,0,1-.3.066,4.28,4.28,0,0,1-2.136-1.83.262.262,0,0,1,.033-.358,1.443,1.443,0,0,0,.388-.63,1.379,1.379,0,0,0-.173-.746,1.768,1.768,0,0,0-.551-.83.754.754,0,0,0-.819.122,1.663,1.663,0,0,0-.577,1.318,1.865,1.865,0,0,0,.052.418,3.462,3.462,0,0,0,.4.924,7.344,7.344,0,0,0,.419.637,6.465,6.465,0,0,0,1.816,1.686,5.5,5.5,0,0,0,1.133.539,2.517,2.517,0,0,0,1.319.208,1.6,1.6,0,0,0,1.2-.889.775.775,0,0,0,.055-.454c-.068-.313-.492-.5-.744-.65" transform="translate(11139.596 509.113)"/><g transform="translate(9816 393)"><path class="c" d="M22.985,33.508l.958-3.574a6.615,6.615,0,1,1,2.635,2.612Zm3.771-2.3.226.135a5.37,5.37,0,1,0-1.837-1.82l.139.228-.535,2Z" transform="translate(1335.457 128.126)"/><path class="d" d="M44.031,39.676a1.11,1.11,0,0,0-.945-.213c-.245.1-.4.485-.561.681a.235.235,0,0,1-.3.066,4.28,4.28,0,0,1-2.136-1.83.262.262,0,0,1,.033-.358,1.443,1.443,0,0,0,.388-.63,1.379,1.379,0,0,0-.173-.746,1.768,1.768,0,0,0-.551-.83.754.754,0,0,0-.819.122,1.663,1.663,0,0,0-.577,1.318,1.865,1.865,0,0,0,.052.418,3.462,3.462,0,0,0,.4.924,7.344,7.344,0,0,0,.419.637,6.465,6.465,0,0,0,1.816,1.686,5.5,5.5,0,0,0,1.133.539,2.517,2.517,0,0,0,1.319.208,1.6,1.6,0,0,0,1.2-.889.775.775,0,0,0,.055-.454c-.068-.313-.492-.5-.744-.65" transform="translate(1323.595 116.113)"/></g></g></svg>