<svg xmlns="http://www.w3.org/2000/svg" width="19.5" height="19.499" viewBox="0 0 19.5 19.499">
  <path id="globe-Regular_1_" d="M560.188,1090.752a9.686,9.686,0,0,0-7.792-6.405,10.118,10.118,0,0,0-2.792,0,9.682,9.682,0,0,0-7.789,6.4,9.663,9.663,0,0,0,0,6.5,9.686,9.686,0,0,0,7.792,6.405,10.066,10.066,0,0,0,1.4.1,9.91,9.91,0,0,0,1.4-.1,9.682,9.682,0,0,0,7.789-6.4,9.66,9.66,0,0,0,0-6.5Zm-1.844-.5H555.3a16.289,16.289,0,0,0-1.443-3.978A8.166,8.166,0,0,1,558.344,1090.251Zm.906,3.749a8.09,8.09,0,0,1-.321,2.251h-3.353a14.677,14.677,0,0,0,0-4.5h3.353A8.093,8.093,0,0,1,559.25,1094Zm-11.312,2.251a13.559,13.559,0,0,1,0-4.5h6.125a13.594,13.594,0,0,1,0,4.5Zm-4.867,0a8.046,8.046,0,0,1,0-4.5h3.353a14.633,14.633,0,0,0,0,4.5Zm8.778-10.442a14.8,14.8,0,0,1,1.912,4.443h-5.523a14.807,14.807,0,0,1,1.913-4.442,8.453,8.453,0,0,1,.849-.059A8.176,8.176,0,0,1,551.849,1085.809Zm-3.708.465a16.25,16.25,0,0,0-1.443,3.978h-3.042A8.158,8.158,0,0,1,548.141,1086.274Zm-4.484,11.477H546.7a16.3,16.3,0,0,0,1.442,3.975A8.164,8.164,0,0,1,543.657,1097.751Zm6.494,4.44a14.83,14.83,0,0,1-1.912-4.439h5.522a14.834,14.834,0,0,1-1.911,4.439A8.626,8.626,0,0,1,550.151,1102.191Zm3.708-.465a16.252,16.252,0,0,0,1.442-3.975h3.042A8.161,8.161,0,0,1,553.859,1101.726Z" transform="translate(-541.25 -1084.25)" fill="#15a964"/>
</svg>
