<svg xmlns="http://www.w3.org/2000/svg" width="22.08" height="22.08" viewBox="0 0 22.08 22.08">
  <path id="dashboard" d="M13.248,22.08a1.1,1.1,0,0,1-1.1-1.1V13.248a1.1,1.1,0,0,1,1.1-1.1h7.728a1.1,1.1,0,0,1,1.1,1.1v7.728a1.1,1.1,0,0,1-1.1,1.1Zm1.1-2.208h5.521v-5.52H14.352ZM1.1,22.08a1.1,1.1,0,0,1-1.1-1.1V13.248a1.1,1.1,0,0,1,1.1-1.1H8.832a1.1,1.1,0,0,1,1.1,1.1v7.728a1.1,1.1,0,0,1-1.1,1.1Zm1.1-2.208H7.728v-5.52H2.208Zm11.04-9.937a1.1,1.1,0,0,1-1.1-1.1V1.1a1.1,1.1,0,0,1,1.1-1.1h7.728a1.1,1.1,0,0,1,1.1,1.1V8.832a1.1,1.1,0,0,1-1.1,1.1Zm1.1-2.207h5.521V2.208H14.352ZM1.1,9.935A1.1,1.1,0,0,1,0,8.832V1.1A1.1,1.1,0,0,1,1.1,0H8.832a1.1,1.1,0,0,1,1.1,1.1V8.832a1.1,1.1,0,0,1-1.1,1.1Zm1.1-2.207H7.728V2.208H2.208Z" fill="#15a964"/>
</svg>
