<svg xmlns="http://www.w3.org/2000/svg" width="27.616" height="27.616" viewBox="0 0 27.616 27.616">
  <path id="store-Regular_1_" d="M664.866,1165.811a1.049,1.049,0,0,0-.055-.337l-1.541-4.624a6.718,6.718,0,0,0-6.381-4.6H645.227a6.718,6.718,0,0,0-6.382,4.6l-1.541,4.624a1.051,1.051,0,0,0-.055.337,5.287,5.287,0,0,0,1.416,3.583v9.161a5.316,5.316,0,0,0,5.311,5.311h5.349v-5.311a1.77,1.77,0,1,1,3.54,0v5.311h5.273a5.316,5.316,0,0,0,5.311-5.311v-9.161A5.29,5.29,0,0,0,664.866,1165.811Zm-24-4.29a4.6,4.6,0,0,1,4.366-3.147h11.661a4.6,4.6,0,0,1,4.366,3.147l1.483,4.448a3.146,3.146,0,0,1-3.168,3.026,3.515,3.515,0,0,1-3.262-2.121,1.061,1.061,0,0,0-1-.711h0a1.061,1.061,0,0,0-1,.718,3.547,3.547,0,0,1-6.489,0,1.061,1.061,0,0,0-1-.718h0a1.062,1.062,0,0,0-1,.711,3.515,3.515,0,0,1-3.26,2.121,3.146,3.146,0,0,1-3.168-3.026Zm17.278,20.221h-3.148v-3.187a3.895,3.895,0,0,0-7.789,0v3.187h-3.225a3.189,3.189,0,0,1-3.186-3.187V1170.8a5.205,5.205,0,0,0,1.756.324,5.851,5.851,0,0,0,4.257-1.88,5.755,5.755,0,0,0,8.509,0,5.845,5.845,0,0,0,4.257,1.88,5.2,5.2,0,0,0,1.756-.324v7.759A3.19,3.19,0,0,1,658.139,1181.742Z" transform="translate(-637.25 -1156.25)" fill="#15a964"/>
</svg>
