<svg xmlns="http://www.w3.org/2000/svg" width="27.616" height="27.615" viewBox="0 0 27.616 27.615">
  <path id="package-Regular_1_" d="M612.711,1159.734l-6.228-2.767a8.559,8.559,0,0,0-6.849,0l-6.229,2.767a6.655,6.655,0,0,0-4.155,6.039v8.568a6.656,6.656,0,0,0,4.155,6.039l6.23,2.767a8.455,8.455,0,0,0,3.39.712c.011,0,.021.007.033.007a.259.259,0,0,0,.033-.007,8.455,8.455,0,0,0,3.39-.712l6.23-2.767a6.655,6.655,0,0,0,4.155-6.039v-8.568A6.654,6.654,0,0,0,612.711,1159.734Zm-12.215-.824h0a6.416,6.416,0,0,1,5.124,0l6.229,2.767a5.408,5.408,0,0,1,1.134.681l-3.555,1.58-10.127-4.5Zm-6.23,2.766,2.417-1.073,10.127,4.5-2.052.912a4.43,4.43,0,0,1-3.406,0l-8.223-3.655A5.537,5.537,0,0,1,594.266,1161.676Zm0,16.761a4.561,4.561,0,0,1-2.893-4.1v-8.568a4.056,4.056,0,0,1,.384-1.7l8.734,3.882a6.19,6.19,0,0,0,1.5.423v13.253a6.169,6.169,0,0,1-1.5-.426Zm20.474-4.1a4.562,4.562,0,0,1-2.893,4.1l-6.23,2.767a6.148,6.148,0,0,1-1.5.425v-13.253a6.164,6.164,0,0,0,1.5-.422l8.734-3.882a4.074,4.074,0,0,1,.384,1.7Z" transform="translate(-589.25 -1156.252)" fill="#15a964"/>
</svg>
