<svg xmlns="http://www.w3.org/2000/svg" width="22.979" height="22.979" viewBox="0 0 22.979 22.979"><g transform="translate(-11072.65 -536.643)"><path d="M22.979,11.489A11.489,11.489,0,1,0,9.694,22.839V14.81H6.777V11.489H9.694V8.958c0-2.879,1.715-4.47,4.34-4.47a17.661,17.661,0,0,1,2.572.224V7.54H15.157a1.66,1.66,0,0,0-1.872,1.794v2.155h3.186l-.509,3.321H13.285v8.028a11.492,11.492,0,0,0,9.694-11.35" transform="translate(11072.65 536.643)" fill="#fff"/><path d="M38.677,29.853l.509-3.321H36V24.377a1.661,1.661,0,0,1,1.872-1.794h1.449V19.755a17.661,17.661,0,0,0-2.572-.224c-2.624,0-4.339,1.591-4.339,4.47v2.531H29.492v3.321h2.917v8.028a11.6,11.6,0,0,0,3.59,0V29.853Z" transform="translate(11049.936 521.6)" fill="#58964f"/></g></svg>