<svg xmlns="http://www.w3.org/2000/svg" width="22.979" height="22.979" viewBox="0 0 22.979 22.979"><defs><style>.a{fill:#fff;}.b{fill:#58964f;}</style></defs><g transform="translate(-11136.99 -536.643)"><path class="a" d="M22.979,11.489A11.489,11.489,0,1,1,11.489,0,11.489,11.489,0,0,1,22.979,11.489" transform="translate(11136.99 536.643)"/><g transform="translate(18481.65 4260)"><path class="b" d="M28.438,28.781h2.225v7.148H28.438Zm1.113-3.552a1.288,1.288,0,1,1-1.29,1.287,1.288,1.288,0,0,1,1.29-1.287" transform="translate(-7366.427 -3742.789)"/><path class="b" d="M44.783,40.095h2.131v.978h.029a2.336,2.336,0,0,1,2.1-1.155c2.25,0,2.664,1.479,2.664,3.4v3.92h-2.22V43.768c0-.83-.016-1.9-1.155-1.9-1.157,0-1.333.9-1.333,1.835v3.536H44.783Z" transform="translate(-7379.153 -3754.103)"/></g></g></svg>