<svg xmlns="http://www.w3.org/2000/svg" width="27.616" height="27.606" viewBox="0 0 27.616 27.606">
  <path id="home-Regular_1_" d="M230.357,1019.423l-7.081-5.693a6.774,6.774,0,0,0-8.435,0l-7.081,5.693a6.685,6.685,0,0,0-2.51,5.234v8.486a6.732,6.732,0,0,0,6.727,6.72h3.895v-6.72a3.186,3.186,0,0,1,6.373,0v6.72h3.895a6.731,6.731,0,0,0,6.727-6.72v-8.486A6.684,6.684,0,0,0,230.357,1019.423Zm.385,13.72a4.6,4.6,0,0,1-4.6,4.6h-1.77v-4.6a5.311,5.311,0,0,0-10.622,0v4.6h-1.77a4.6,4.6,0,0,1-4.6-4.6v-8.486a4.57,4.57,0,0,1,1.715-3.579l7.081-5.693a4.638,4.638,0,0,1,5.774,0l7.081,5.693a4.57,4.57,0,0,1,1.715,3.579v8.486Z" transform="translate(-205.25 -1012.257)" fill="#15a964"/>
</svg>
