<svg xmlns="http://www.w3.org/2000/svg" xmlns:xlink="http://www.w3.org/1999/xlink" width="19.5" height="17.499" viewBox="0 0 19.5 17.499">
  <defs>
    <clipPath id="clip-path">
      <rect width="19.5" height="17.499" fill="none"/>
    </clipPath>
  </defs>
  <g id="Repeat_Grid_3" data-name="Repeat Grid 3" clip-path="url(#clip-path)">
    <g transform="translate(-19016 -2118)">
      <path id="users-three-Regular_1_" d="M791,1239.75a4.75,4.75,0,1,0-4.75-4.75A4.756,4.756,0,0,0,791,1239.75Zm0-8a3.25,3.25,0,1,1-3.25,3.25A3.254,3.254,0,0,1,791,1231.75Zm6.75,12.65v.866a3.342,3.342,0,0,1-.852,2.233.75.75,0,0,1-1.118-1,1.848,1.848,0,0,0,.469-1.233v-.866a2.686,2.686,0,0,0-2.013-2.626.765.765,0,0,0-.561.071,5.514,5.514,0,0,1-5.347,0,.771.771,0,0,0-.566-.076,2.688,2.688,0,0,0-2.014,2.627v.866a1.848,1.848,0,0,0,.469,1.233.75.75,0,0,1-1.118,1,3.344,3.344,0,0,1-.852-2.233v-.866a4.188,4.188,0,0,1,3.147-4.082,2.269,2.269,0,0,1,1.668.224,4.009,4.009,0,0,0,3.876,0,2.254,2.254,0,0,1,1.662-.219A4.185,4.185,0,0,1,797.75,1244.4Zm-1.457-13.479a.75.75,0,0,1,.957-.457,3.75,3.75,0,0,1,1.25,6.331.75.75,0,1,1-1-1.118,2.251,2.251,0,0,0-.75-3.8A.75.75,0,0,1,796.293,1230.921Zm4.457,10.912v.722a.75.75,0,0,1-1.5,0v-.722a2.114,2.114,0,0,0-1.583-2.067.75.75,0,0,1,.365-1.455A3.612,3.612,0,0,1,800.75,1241.833Zm-17.25-4.594a3.75,3.75,0,0,1,1.25-6.331.75.75,0,0,1,.5,1.414,2.251,2.251,0,0,0-.75,3.8.75.75,0,0,1-1,1.118Zm.833,2.971a2.114,2.114,0,0,0-1.583,2.067V1243a.75.75,0,0,1-1.5,0v-.722a3.613,3.613,0,0,1,2.718-3.522.75.75,0,1,1,.365,1.454Z" transform="translate(18234.75 887.75)" fill="#15a964"/>
    </g>
  </g>
</svg>
