<svg xmlns="http://www.w3.org/2000/svg" width="27.614" height="27.613" viewBox="0 0 27.614 27.613">
  <path id="phone-Regular_1_" d="M760.775,1392.573h0a5.125,5.125,0,0,0-.113-.507,2.436,2.436,0,0,0-1.963-1.715l-6.135-1.021a2.473,2.473,0,0,0-2.364.909c-.076.1-.15.2-.218.3a.427.427,0,0,1-.517.19,13.6,13.6,0,0,1-7.077-7.078.415.415,0,0,1,.183-.51c.135-.091.265-.189.391-.29a2.5,2.5,0,0,0,.894-2.33l-.95-6.026a2.46,2.46,0,0,0-1.654-1.967,5.233,5.233,0,0,0-.719-.18,6.071,6.071,0,0,0-5.036,1.4,6.409,6.409,0,0,0-2.242,5.056,21.656,21.656,0,0,0,21.063,21.065l.174,0a6.4,6.4,0,0,0,4.859-2.232A6.117,6.117,0,0,0,760.775,1392.573Zm-3.035,3.672a4.373,4.373,0,0,1-3.368,1.5,19.535,19.535,0,0,1-19-19,4.3,4.3,0,0,1,1.5-3.387,3.922,3.922,0,0,1,2.575-.98,4.076,4.076,0,0,1,.7.062,3,3,0,0,1,.426.106.345.345,0,0,1,.225.282l.95,6.026a.369.369,0,0,1-.13.345c-.082.067-.166.129-.252.187a2.52,2.52,0,0,0-.936,3.113,15.72,15.72,0,0,0,8.177,8.179,2.532,2.532,0,0,0,3.12-.94c.043-.061.086-.122.135-.184a.367.367,0,0,1,.344-.125l6.135,1.021a.329.329,0,0,1,.266.194,2.884,2.884,0,0,1,.066.3A4.006,4.006,0,0,1,757.74,1396.246Z" transform="translate(-733.251 -1372.252)" fill="#15a964"/>
</svg>
