<svg xmlns="http://www.w3.org/2000/svg" width="23.443" height="16.23" viewBox="0 0 23.443 16.23">
  <g id="Group_793" data-name="Group 793" transform="translate(-1238 19)">
    <g id="Icon_ionic-ios-mail" data-name="Icon ionic-ios-mail" transform="translate(1238 -19)">
      <path id="Path_255" data-name="Path 255" d="M26.627,10.349l-6.064,6.3a.113.113,0,0,0,0,.161l4.243,4.611a.757.757,0,0,1,0,1.058.724.724,0,0,1-1.037,0l-4.227-4.594a.114.114,0,0,0-.163,0l-1.031,1.069a4.493,4.493,0,0,1-3.235,1.391,4.584,4.584,0,0,1-3.3-1.432l-.992-1.029a.114.114,0,0,0-.163,0L6.429,22.481a.724.724,0,0,1-1.037,0,.757.757,0,0,1,0-1.058l4.243-4.611a.124.124,0,0,0,0-.161l-6.069-6.3a.111.111,0,0,0-.192.08V23.039a1.827,1.827,0,0,0,1.8,1.84H25.015a1.827,1.827,0,0,0,1.8-1.84V10.43A.112.112,0,0,0,26.627,10.349Z" transform="translate(-3.375 -8.649)" fill="#58964f"/>
      <path id="Path_256" data-name="Path 256" d="M15.366,16.664a3.4,3.4,0,0,0,2.224-.787l8.923-7.666a2,2,0,0,0-1.126-.336H5.352a1.988,1.988,0,0,0-1.126.336l8.923,7.666A3.4,3.4,0,0,0,15.366,16.664Z" transform="translate(-3.645 -7.875)" fill="#58964f"/>
    </g>
  </g>
</svg>
