<svg xmlns="http://www.w3.org/2000/svg" width="22" height="22" viewBox="0 0 22 22">
  <path id="Icon_material-phone-in-talk" data-name="Icon material-phone-in-talk" d="M25.278,19.778a13.885,13.885,0,0,1-4.363-.7,1.247,1.247,0,0,0-1.247.293l-2.689,2.689a18.389,18.389,0,0,1-8.054-8.054l2.689-2.7a1.173,1.173,0,0,0,.306-1.222,13.885,13.885,0,0,1-.7-4.363A1.226,1.226,0,0,0,10,4.5H5.722A1.226,1.226,0,0,0,4.5,5.722,20.776,20.776,0,0,0,25.278,26.5,1.226,1.226,0,0,0,26.5,25.278V21A1.226,1.226,0,0,0,25.278,19.778ZM24.056,15.5H26.5a11,11,0,0,0-11-11V6.944A8.549,8.549,0,0,1,24.056,15.5Zm-4.889,0h2.444A6.113,6.113,0,0,0,15.5,9.389v2.444A3.662,3.662,0,0,1,19.167,15.5Z" transform="translate(-4.5 -4.5)" fill="#58964f"/>
</svg>
