<svg xmlns="http://www.w3.org/2000/svg" width="68.875" height="68.875" viewBox="0 0 68.875 68.875">
  <path id="Icon_awesome-check-circle" data-name="Icon awesome-check-circle" d="M69.438,35A34.438,34.438,0,1,1,35,.562,34.437,34.437,0,0,1,69.438,35ZM31.017,53.234l25.55-25.55a2.222,2.222,0,0,0,0-3.142L53.425,21.4a2.222,2.222,0,0,0-3.142,0L29.446,42.237l-9.728-9.728a2.222,2.222,0,0,0-3.142,0l-3.142,3.142a2.222,2.222,0,0,0,0,3.142L27.874,53.234a2.222,2.222,0,0,0,3.142,0Z" transform="translate(-0.563 -0.563)" fill="#15a964"/>
</svg>
