<svg xmlns="http://www.w3.org/2000/svg" width="36.958" height="30.778" viewBox="0 0 36.958 30.778">
  <g id="Group_1627" data-name="Group 1627" transform="translate(-1430.045 -3594)">
    <path id="Path_2129" data-name="Path 2129" d="M7.426,49.4H40.945v.414q0,9.083,0,18.166c0,.647-.144.794-.775.794H8.158c-.591,0-.753-.157-.753-.739q0-9.14,0-18.28c0-.111.013-.223.021-.354M25.9,58.072c.527-1.158,1.029-2.252,1.523-3.349.244-.541.032-.869-.565-.872-1.259-.007-2.517,0-3.776-.005a.654.654,0,0,0-.678.436c-.8,1.852-1.62,3.7-2.426,5.548-.234.537-.013.869.573.88.388.007.777,0,1.214,0-.066.2-.109.326-.153.456q-.57,1.676-1.142,3.352c-.1.286-.122.56.164.748s.523.068.753-.136q3.413-3.02,6.832-6.034c.2-.177.36-.368.256-.659a.576.576,0,0,0-.639-.368c-.622.006-1.245,0-1.936,0" transform="translate(1424.351 3556.006)" fill="#15a964"/>
    <path id="Path_2130" data-name="Path 2130" d="M18.482,28.423H1.467c-.14,0-.28,0-.42-.005A1.021,1.021,0,0,1,.01,27.373q-.02-1.392,0-2.786a1.038,1.038,0,0,1,1-1.054c.1-.009.2,0,.3,0H35.646c.076,0,.153,0,.229,0a1.049,1.049,0,0,1,1.077,1.092c.011.827,0,1.653,0,2.48,0,.953-.361,1.319-1.305,1.32q-3.949,0-7.9,0H18.482" transform="translate(1430.045 3575.904)" fill="#15a964"/>
    <path id="Path_2131" data-name="Path 2131" d="M28.105,4.355h-8.25c0-.522-.024-1.028.009-1.531.02-.311.257-.449.563-.45.329,0,.657,0,1.038,0,0-.566,0-1.108,0-1.649,0-.557.169-.722.73-.722q1.793,0,3.586,0c.532,0,.7.173.707.708s0,1.068,0,1.664c.337,0,.661,0,.985,0,.44.007.624.188.63.626s0,.884,0,1.355" transform="translate(1414.78 3594)" fill="#15a964"/>
    <path id="Path_2132" data-name="Path 2132" d="M104.474,4.345c0-.509-.015-.991.005-1.471a.5.5,0,0,1,.558-.5c.33-.006.66,0,1.05,0,0-.543,0-1.071,0-1.6,0-.617.153-.772.757-.773q1.774,0,3.547,0c.552,0,.718.169.72.734,0,.531,0,1.063,0,1.637.345,0,.659,0,.973,0,.459.006.638.187.643.652,0,.431,0,.861,0,1.319Z" transform="translate(1349.695 3594)" fill="#15a964"/>
  </g>
</svg>
