<svg xmlns="http://www.w3.org/2000/svg" xmlns:xlink="http://www.w3.org/1999/xlink" width="32.024" height="42.7" viewBox="0 0 32.024 42.7">
  <defs>
    <clipPath id="clip-path">
      <rect width="32.024" height="42.7" fill="none"/>
    </clipPath>
  </defs>
  <g id="Repeat_Grid_4" data-name="Repeat Grid 4" clip-path="url(#clip-path)">
    <g transform="translate(-1006 -3003)">
      <path id="Icon_awesome-tree" data-name="Icon awesome-tree" d="M31.55,31.565l-6.663-7.547h2.554a1.9,1.9,0,0,0,1.733-1.089,1.838,1.838,0,0,0-.274-2.006l-6.516-7.58h2.409a1.89,1.89,0,0,0,1.74-1.135,1.856,1.856,0,0,0-.354-2.008L16.984.4A1.374,1.374,0,0,0,15.04.4l-9.2,9.8a1.857,1.857,0,0,0-.354,2.008,1.891,1.891,0,0,0,1.74,1.135H9.639L3.122,20.925a1.841,1.841,0,0,0-.273,2,1.9,1.9,0,0,0,1.733,1.088H7.137L.474,31.565a1.844,1.844,0,0,0-.3,2.023A1.934,1.934,0,0,0,1.93,34.693H13.343v2.039l-2.526,4.036A1.335,1.335,0,0,0,12.011,42.7h8a1.335,1.335,0,0,0,1.193-1.931l-2.526-4.036V34.693H30.094a1.934,1.934,0,0,0,1.752-1.105A1.844,1.844,0,0,0,31.55,31.565Z" transform="translate(1006 3003)" fill="#15a964"/>
    </g>
  </g>
</svg>
