<svg id="Group_1626" data-name="Group 1626" xmlns="http://www.w3.org/2000/svg" xmlns:xlink="http://www.w3.org/1999/xlink" width="40.172" height="46.797" viewBox="0 0 40.172 46.797">
  <defs>
    <clipPath id="clip-path">
      <rect id="Rectangle_382" data-name="Rectangle 382" width="40.172" height="46.797" fill="#15a964"/>
    </clipPath>
  </defs>
  <g id="Group_1337" data-name="Group 1337" clip-path="url(#clip-path)">
    <path id="Path_2133" data-name="Path 2133" d="M100.986,86.736a18.748,18.748,0,0,1-2.709-.751,9.419,9.419,0,0,1-4.224-13.828,1.343,1.343,0,0,0,.17-.679q.015-6.67.007-13.341c0-.966.293-1.264,1.246-1.265,1.066,0,2.132,0,3.2,0,.813,0,1.139.33,1.14,1.134q0,4.8,0,9.594v.561l1.81-.227v-.525q0-7.127,0-14.255c0-.9.294-1.2,1.207-1.2,1.081,0,2.163-.006,3.244,0,.83.005,1.13.31,1.13,1.132q0,8.041-.006,16.082a.742.742,0,0,0,.33.678,9.379,9.379,0,0,1-4.459,16.812,1.523,1.523,0,0,0-.256.079Zm.879-1.911a7.493,7.493,0,1,0-7.453-7.448,7.485,7.485,0,0,0,7.453,7.448m3.4-16.292V53.869h-1.744V67.323a2.7,2.7,0,0,0,.011.546.41.41,0,0,0,.22.272c.492.146.993.261,1.513.392M97.932,58.79H96.176V69.855c.48-.285.908-.58,1.371-.8a.619.619,0,0,0,.392-.667c-.012-3.042-.007-6.083-.007-9.125Z" transform="translate(-71.119 -39.939)" fill="#15a964"/>
    <path id="Path_2134" data-name="Path 2134" d="M19.166,10.512c-1.336,1.342-2.59,2.606-3.849,3.866q-6.7,6.7-13.409,13.406a3.2,3.2,0,0,1-.441.395.921.921,0,0,1-1.206-.137A.892.892,0,0,1,.21,26.836,3.559,3.559,0,0,1,.522,26.5L18.2,8.832c.7-.7,1.163-.7,1.861-.014q1.478,1.462,2.952,2.928c.117.116.24.226.37.349L33.434,1.921c-.026,0-.154-.018-.283-.018-1.173,0-2.346.006-3.518,0-.673,0-1.119-.384-1.122-.942A.984.984,0,0,1,29.617.008Q32.724,0,35.831,0A.96.96,0,0,1,36.9,1.044q.01,3.152-.007,6.3a.97.97,0,0,1-.949,1.066A.988.988,0,0,1,34.991,7.3c0-1.308,0-2.616,0-4.035-.176.167-.291.272-.4.382L24.511,13.733c-.108.108-.214.217-.323.323a.95.95,0,0,1-1.573,0q-1.564-1.57-3.121-3.147c-.106-.107-.194-.232-.328-.4" transform="translate(0 0)" fill="#15a964"/>
    <path id="Path_2135" data-name="Path 2135" d="M68.011,106.04q0-4.089,0-8.179c0-.991.316-1.3,1.319-1.3,1.021,0,2.041,0,3.062,0,.865,0,1.208.331,1.209,1.177q.005,8.339,0,16.678c0,.857-.331,1.179-1.2,1.183q-1.6.007-3.2,0c-.851,0-1.192-.344-1.193-1.194q0-4.181,0-8.362m3.671-7.549H69.935v15.193h1.747Z" transform="translate(-52.287 -74.234)" fill="#15a964"/>
    <path id="Path_2136" data-name="Path 2136" d="M35.694,114.4q0-3.563,0-7.125c0-.975.3-1.273,1.288-1.274,1.051,0,2.1,0,3.152,0a1,1,0,0,1,1.147,1.146q.006,7.239,0,14.478a.986.986,0,0,1-1.113,1.137c-1.112.013-2.223.011-3.335,0-.806-.007-1.137-.342-1.138-1.149-.006-2.406,0-4.811,0-7.216m3.66-6.465H37.6v13.008h1.75Z" transform="translate(-27.441 -81.491)" fill="#15a964"/>
    <path id="Path_2137" data-name="Path 2137" d="M3.354,145.517c0-1.065,0-2.13,0-3.194,0-.769.348-1.115,1.116-1.12q1.666-.009,3.332,0c.773,0,1.133.372,1.134,1.159q.005,3.148,0,6.3c0,.8-.342,1.155-1.129,1.164q-1.666.018-3.332,0c-.8-.008-1.119-.349-1.122-1.158,0-1.049,0-2.1,0-3.149M7,143.133H5.279v4.883H7Z" transform="translate(-2.578 -108.554)" fill="#15a964"/>
    <path id="Path_2138" data-name="Path 2138" d="M119.955,142.457c-.02-.75.317-1.165.846-1.206a.966.966,0,0,1,1.014.95,1.184,1.184,0,0,0,1.024,1.161,1.174,1.174,0,0,0,.388-2.316c-.3-.055-.609-.052-.9-.118a3.036,3.036,0,0,1-2.34-2.565,2.977,2.977,0,0,1,1.629-3.145c.491-.229.735-.451.674-1.02a.915.915,0,0,1,1.6-.566,1.571,1.571,0,0,1,.262.839.808.808,0,0,0,.46.82,2.9,2.9,0,0,1,1.5,2.416.974.974,0,0,1-.888,1.158c-.554.037-.943-.341-1.02-.992a1.184,1.184,0,0,0-2.273-.406,1.14,1.14,0,0,0,.4,1.417,1.719,1.719,0,0,0,.765.243,3.1,3.1,0,0,1,2.932,2.378,3.04,3.04,0,0,1-1.611,3.446c-.266.145-.261.324-.269.554a.953.953,0,0,1-.826,1.035.922.922,0,0,1-1.043-.941.508.508,0,0,0-.384-.554,2.971,2.971,0,0,1-1.932-2.587" transform="translate(-92.222 -102.489)" fill="#15a964"/>
  </g>
</svg>
