<svg xmlns="http://www.w3.org/2000/svg" width="33.269" height="26.615" viewBox="0 0 33.269 26.615">
  <g id="Group_1619" data-name="Group 1619" transform="translate(-226.13 -2253.222)">
    <path id="sales" d="M778.315,423a45.954,45.954,0,0,0-4.759.137,4.307,4.307,0,0,0-4.421,4.424,7.319,7.319,0,0,0-.135,2.092V442.96a7.293,7.293,0,0,0,.138,2.1,4.306,4.306,0,0,0,4.424,4.421,46.141,46.141,0,0,0,4.754.135h14.638a45.921,45.921,0,0,0,4.759-.138,4.305,4.305,0,0,0,4.421-4.424,7.294,7.294,0,0,0,.135-2.092V429.653a7.283,7.283,0,0,0-.138-2.1,4.3,4.3,0,0,0-4.424-4.421,45.962,45.962,0,0,0-4.754-.135Zm0,2.661h14.638c1.99,0,3.465.008,4.458.12a1.787,1.787,0,0,1,2.077,2.073,5.112,5.112,0,0,1,.119,1.8v1.331h-5.323a1.316,1.316,0,0,0-.291.028,5.3,5.3,0,0,0,0,10.588,1.259,1.259,0,0,0,.291.028h5.323v1.331a5.117,5.117,0,0,1-.119,1.8,1.787,1.787,0,0,1-2.074,2.076c-.992.111-2.468.119-4.46.119H778.315c-.509,0-.889-.008-1.331-.01V425.67c.442,0,.822-.01,1.331-.01Zm-3.992.094v21.1c-.14-.012-.341-.013-.465-.027a1.787,1.787,0,0,1-2.077-2.074,5.094,5.094,0,0,1-.12-1.8V429.653a5.1,5.1,0,0,1,.12-1.8,1.787,1.787,0,0,1,2.074-2.077c.125-.014.327-.015.468-.027Zm19.961,7.892h5.323v5.323h-5.323a2.661,2.661,0,1,1,0-5.323Zm0,1.33a1.33,1.33,0,1,0,1.331,1.331A1.331,1.331,0,0,0,794.284,434.976Z" transform="translate(-542.87 1830.222)" fill="#15a964"/>
  </g>
</svg>
