<svg xmlns="http://www.w3.org/2000/svg" xmlns:xlink="http://www.w3.org/1999/xlink" width="52.326" height="44.216" viewBox="0 0 52.326 44.216">
  <defs>
    <clipPath id="clip-path">
      <rect id="Rectangle_440" data-name="Rectangle 440" width="52.326" height="44.216" fill="#15a964"/>
    </clipPath>
  </defs>
  <g id="Group_1620" data-name="Group 1620" transform="translate(-216.375 -2499.794)">
    <g id="Group_1615" data-name="Group 1615" transform="translate(216.375 2499.794)" clip-path="url(#clip-path)">
      <path id="Path_3848" data-name="Path 3848" d="M95.432,7.567a13.072,13.072,0,0,1-.924,1.424Q88.13,16.544,81.723,24.072a1.972,1.972,0,0,1-3.283-.016Q71.887,16.331,65.331,8.61a1.974,1.974,0,0,1-.048-2.776c1.237-1.552,2.482-3.1,3.7-4.66A3.076,3.076,0,0,1,70.482,0H89.663a2.891,2.891,0,0,1,1.487,1.126c1.127,1.448,2.292,2.866,3.418,4.316a15.68,15.68,0,0,1,.865,1.377Zm-20.208.115,4.828,14.466.075-.008L84.95,7.682Zm6.185,14.669.078.027L93.966,7.667h-.527c-2.222,0-4.444.009-6.665-.009a.542.542,0,0,0-.627.443c-1.236,3.751-2.491,7.5-3.74,11.243q-.5,1.5-1,3.006M66.227,7.687l12.5,14.725a.2.2,0,0,0,.01-.168q-2.384-7.148-4.761-14.3c-.083-.251-.217-.283-.439-.283q-3.446.008-6.892,0c-.108,0-.216.01-.414.02M84.389,6.374,80.088,1.6l-4.3,4.776ZM78.626,1.308H71.287L74.41,5.992l4.216-4.684m2.907-.018,4.235,4.7L88.9,1.29ZM93.687,6.37,90.07,1.839,87.054,6.37Zm-20.56,0L70.1,1.84,66.491,6.375Z" transform="translate(-47.03)" fill="#15a964"/>
      <path id="Path_3849" data-name="Path 3849" d="M0,96.977a2.143,2.143,0,0,1,2.313-1.423c2.491.05,4.984.025,7.477.009a2.084,2.084,0,0,1,1.768.721.688.688,0,0,0,.461.182c.537.022,1.075.007,1.613.01a1.989,1.989,0,0,1,1.572.688.74.74,0,0,0,.487.229c1.111.019,2.228.067,3.333-.016a4.834,4.834,0,0,0,1.6-.539,4.4,4.4,0,0,0,.953-.7,6.2,6.2,0,0,1,5.48-1.3c4.479.8,8.972,1.512,13.465,2.222a3.266,3.266,0,0,1,2.8,2.2c.177-.125.331-.231.482-.341,1.275-.928,2.534-1.88,3.831-2.777a2.841,2.841,0,0,1,3.289-.088A2.793,2.793,0,0,1,52.3,98.937a2.729,2.729,0,0,1-1.037,1.882q-6.742,5.432-13.495,10.851a7.5,7.5,0,0,1-3.12,1.341H33.145c-.531-.155-1.071-.283-1.592-.469-3.607-1.284-7.208-2.585-10.818-3.863a4.35,4.35,0,0,0-1.306-.257c-1.218-.035-2.438-.024-3.656,0a.914.914,0,0,0-.588.253,2.007,2.007,0,0,1-1.526.668c-.538,0-1.076-.011-1.613.008a.685.685,0,0,0-.466.159,2.1,2.1,0,0,1-1.812.744c-2.492-.014-4.984-.036-7.475.008A2.1,2.1,0,0,1,0,108.814Zm15.63,9.6c1.173,0,2.3-.055,3.425.018a9.707,9.707,0,0,1,2.518.438q5.254,1.813,10.466,3.747a4.719,4.719,0,0,0,4.968-.831c3.087-2.512,6.2-4.993,9.3-7.487,1.229-.989,2.462-1.974,3.685-2.97a1.118,1.118,0,0,0,.307-1.564,1.2,1.2,0,0,0-1.673-.243c-.12.079-.233.167-.349.252q-5.562,4.054-11.126,8.108a1.784,1.784,0,0,1-2.65-.077c-1.1-.923-2.182-1.862-3.294-2.768a1.363,1.363,0,0,0-.763-.28c-.967-.033-1.936,0-2.9-.021a.879.879,0,0,1-.9-.88.9.9,0,0,1,.849-.937,4.383,4.383,0,0,1,.484-.008H40.08c.179,0,.4.059.53-.022a2.541,2.541,0,0,0,.863-.705.814.814,0,0,0-.258-1.062,1.841,1.841,0,0,0-.812-.361c-4.311-.723-8.64-1.347-12.93-2.171a5.7,5.7,0,0,0-5.457,1.336,4.59,4.59,0,0,1-3.426,1.158c-.979-.029-1.96-.006-2.961-.006Zm-5.561-9.14H1.862v10.948h8.207Zm1.9,10.043h1.785v-9.13H11.966Zm23.9-2.766,2.433-1.776H33.764l2.1,1.776" transform="translate(0 -68.796)" fill="#15a964"/>
    </g>
  </g>
</svg>
