<svg xmlns="http://www.w3.org/2000/svg" width="57.159" height="83.288" viewBox="0 0 57.159 83.288">
  <g id="Group_1606" data-name="Group 1606" transform="translate(-1116 1218.288)">
    <path id="Path_3828" data-name="Path 3828" d="M48.177,0H8.982A8.992,8.992,0,0,0,0,8.982V74.306a8.992,8.992,0,0,0,8.982,8.982H48.177a8.992,8.992,0,0,0,8.982-8.982V8.982A8.992,8.992,0,0,0,48.177,0m4.083,74.306a4.087,4.087,0,0,1-4.083,4.083H8.982A4.087,4.087,0,0,1,4.9,74.306V8.982A4.087,4.087,0,0,1,8.982,4.9H48.177a4.087,4.087,0,0,1,4.083,4.083Z" transform="translate(1116 -1218.288)" fill="#15a964"/>
    <path id="Path_3829" data-name="Path 3829" d="M95.112,60H62.45A2.45,2.45,0,0,0,60,62.45v9.8a2.45,2.45,0,0,0,2.45,2.45H95.112a2.45,2.45,0,0,0,2.45-2.45v-9.8A2.45,2.45,0,0,0,95.112,60m-2.45,9.8H64.9V64.9H92.662Z" transform="translate(1065.799 -1268.49)" fill="#15a964"/>
    <path id="Path_3830" data-name="Path 3830" d="M66.45,180A2.45,2.45,0,1,1,64,182.45,2.45,2.45,0,0,1,66.45,180" transform="translate(1062.452 -1368.892)" fill="#15a964"/>
    <path id="Path_3831" data-name="Path 3831" d="M130.45,180a2.45,2.45,0,1,1-2.45,2.45,2.45,2.45,0,0,1,2.45-2.45" transform="translate(1008.904 -1368.892)" fill="#15a964"/>
    <path id="Path_3832" data-name="Path 3832" d="M66.45,240A2.45,2.45,0,1,1,64,242.45,2.45,2.45,0,0,1,66.45,240" transform="translate(1062.452 -1419.094)" fill="#15a964"/>
    <path id="Path_3833" data-name="Path 3833" d="M130.45,240a2.45,2.45,0,1,1-2.45,2.45,2.45,2.45,0,0,1,2.45-2.45" transform="translate(1008.904 -1419.094)" fill="#15a964"/>
    <path id="Path_3834" data-name="Path 3834" d="M194.45,240a2.45,2.45,0,1,1-2.45,2.45,2.45,2.45,0,0,1,2.45-2.45" transform="translate(955.356 -1419.094)" fill="#15a964"/>
    <path id="Path_3835" data-name="Path 3835" d="M258.45,240a2.45,2.45,0,1,1-2.45,2.45,2.45,2.45,0,0,1,2.45-2.45" transform="translate(901.807 -1419.094)" fill="#15a964"/>
    <path id="Path_3836" data-name="Path 3836" d="M66.45,300A2.45,2.45,0,1,1,64,302.45,2.45,2.45,0,0,1,66.45,300" transform="translate(1062.452 -1469.295)" fill="#15a964"/>
    <path id="Path_3837" data-name="Path 3837" d="M130.45,300a2.45,2.45,0,1,1-2.45,2.45,2.45,2.45,0,0,1,2.45-2.45" transform="translate(1008.904 -1469.295)" fill="#15a964"/>
    <path id="Path_3838" data-name="Path 3838" d="M194.45,300a2.45,2.45,0,1,1-2.45,2.45,2.45,2.45,0,0,1,2.45-2.45" transform="translate(955.356 -1469.295)" fill="#15a964"/>
    <path id="Path_3839" data-name="Path 3839" d="M258.45,300a2.45,2.45,0,1,1-2.45,2.45,2.45,2.45,0,0,1,2.45-2.45" transform="translate(901.807 -1469.295)" fill="#15a964"/>
    <path id="Path_3840" data-name="Path 3840" d="M66.45,360A2.45,2.45,0,1,1,64,362.45,2.45,2.45,0,0,1,66.45,360" transform="translate(1062.452 -1519.496)" fill="#15a964"/>
    <path id="Path_3841" data-name="Path 3841" d="M130.45,360a2.45,2.45,0,1,1-2.45,2.45,2.45,2.45,0,0,1,2.45-2.45" transform="translate(1008.904 -1519.496)" fill="#15a964"/>
    <path id="Path_3842" data-name="Path 3842" d="M194.45,360a2.45,2.45,0,1,1-2.45,2.45,2.45,2.45,0,0,1,2.45-2.45" transform="translate(955.356 -1519.496)" fill="#15a964"/>
    <path id="Path_3843" data-name="Path 3843" d="M66.45,420A2.45,2.45,0,1,1,64,422.45,2.45,2.45,0,0,1,66.45,420" transform="translate(1062.452 -1569.698)" fill="#15a964"/>
    <path id="Path_3844" data-name="Path 3844" d="M130.45,420a2.45,2.45,0,1,1-2.45,2.45,2.45,2.45,0,0,1,2.45-2.45" transform="translate(1008.904 -1569.698)" fill="#15a964"/>
    <path id="Path_3845" data-name="Path 3845" d="M194.45,420a2.45,2.45,0,1,1-2.45,2.45,2.45,2.45,0,0,1,2.45-2.45" transform="translate(955.356 -1569.698)" fill="#15a964"/>
    <path id="Path_3846" data-name="Path 3846" d="M258.45,360a2.45,2.45,0,0,0-2.45,2.45v9.8a2.45,2.45,0,0,0,4.9,0v-9.8a2.45,2.45,0,0,0-2.45-2.45" transform="translate(901.807 -1519.496)" fill="#15a964"/>
    <path id="Path_3847" data-name="Path 3847" d="M204.9,180H194.45a2.45,2.45,0,1,0,0,4.9H204.9a2.45,2.45,0,1,0,0-4.9" transform="translate(955.356 -1368.892)" fill="#15a964"/>
  </g>
</svg>
