<svg xmlns="http://www.w3.org/2000/svg" width="35.12" height="35.121" viewBox="0 0 35.12 35.121">
  <g id="Group_1625" data-name="Group 1625" transform="translate(-920.451 -1172.902)">
    <g id="Group_883" data-name="Group 883" transform="translate(920.451 1172.902)">
      <path id="Path_317" data-name="Path 317" d="M68.955,96.653H49.473a4.771,4.771,0,0,0,4.771,4.771H74.288V96.653Z" transform="translate(-39.168 -76.52)" fill="#15a964"/>
      <path id="Path_318" data-name="Path 318" d="M17.561,30.054A12.494,12.494,0,1,1,27.5,9.99H15.076a4.771,4.771,0,0,0-4.77,4.771v.081a.08.08,0,0,0,.08.08H34.923A17.571,17.571,0,0,0,10.305,1.565,17.628,17.628,0,0,0,1.71,9.99,17.448,17.448,0,0,0,.2,14.922a17.765,17.765,0,0,0-.009,5.211A17.376,17.376,0,0,0,1.605,24.9,17.548,17.548,0,0,0,17.561,35.12H35.12V30.054H17.561Z" fill="#15a964"/>
    </g>
  </g>
</svg>
