<svg id="Icon_ionic-ios-mail" data-name="Icon ionic-ios-mail" xmlns="http://www.w3.org/2000/svg" width="23" height="15.923" viewBox="0 0 23 15.923">
  <path id="Path_2039" data-name="Path 2039" d="M26.187,10.349l-5.949,6.205a.111.111,0,0,0,0,.159L24.4,21.253a.747.747,0,0,1,0,1.042.709.709,0,0,1-1.017,0l-4.147-4.524a.112.112,0,0,0-.16,0l-1.012,1.053a4.4,4.4,0,0,1-3.174,1.37,4.49,4.49,0,0,1-3.24-1.41l-.973-1.013a.112.112,0,0,0-.16,0L6.372,22.3a.709.709,0,0,1-1.017,0,.747.747,0,0,1,0-1.042l4.163-4.541a.123.123,0,0,0,0-.159L3.563,10.349a.109.109,0,0,0-.188.079V22.844a1.8,1.8,0,0,0,1.769,1.812H24.606a1.8,1.8,0,0,0,1.769-1.812V10.428A.11.11,0,0,0,26.187,10.349Z" transform="translate(-3.375 -8.733)" fill="#fff"/>
  <path id="Path_2040" data-name="Path 2040" d="M15.174,16.218a3.412,3.412,0,0,0,2.185-.747l8.769-7.277a2.017,2.017,0,0,0-1.107-.319H5.332a2,2,0,0,0-1.107.319l8.769,7.277A3.411,3.411,0,0,0,15.174,16.218Z" transform="translate(-3.674 -7.875)" fill="#fff"/>
</svg>
