<svg xmlns="http://www.w3.org/2000/svg" width="50.477" height="33.651" viewBox="0 0 50.477 33.651">
  <path id="Icon_awesome-newspaper" data-name="Icon awesome-newspaper" d="M48.373,4.5H7.712a2.1,2.1,0,0,0-2.1,2.1v.7H2.1A2.1,2.1,0,0,0,0,9.407V33.244a4.907,4.907,0,0,0,4.907,4.907H46.27a4.206,4.206,0,0,0,4.206-4.206V6.6A2.1,2.1,0,0,0,48.373,4.5ZM4.907,33.945a.7.7,0,0,1-.7-.7V11.511h1.4V33.244A.7.7,0,0,1,4.907,33.945Zm20.681-1.4H12.269a1.052,1.052,0,0,1-1.052-1.052v-.7a1.052,1.052,0,0,1,1.052-1.052h13.32A1.052,1.052,0,0,1,26.64,30.79v.7A1.052,1.052,0,0,1,25.589,32.543Zm18.228,0H30.5a1.052,1.052,0,0,1-1.052-1.052v-.7A1.052,1.052,0,0,1,30.5,29.738h13.32a1.052,1.052,0,0,1,1.052,1.052v.7A1.052,1.052,0,0,1,43.816,32.543ZM25.589,24.13H12.269a1.052,1.052,0,0,1-1.052-1.052v-.7a1.052,1.052,0,0,1,1.052-1.052h13.32a1.052,1.052,0,0,1,1.052,1.052v.7A1.052,1.052,0,0,1,25.589,24.13Zm18.228,0H30.5a1.052,1.052,0,0,1-1.052-1.052v-.7A1.052,1.052,0,0,1,30.5,21.326h13.32a1.052,1.052,0,0,1,1.052,1.052v.7A1.052,1.052,0,0,1,43.816,24.13Zm0-8.413H12.269a1.052,1.052,0,0,1-1.052-1.052V11.16a1.052,1.052,0,0,1,1.052-1.052H43.816a1.052,1.052,0,0,1,1.052,1.052v3.505A1.052,1.052,0,0,1,43.816,15.717Z" transform="translate(0 -4.5)" fill="#15a964"/>
</svg>
