<svg xmlns="http://www.w3.org/2000/svg" xmlns:xlink="http://www.w3.org/1999/xlink" width="70" height="84" viewBox="0 0 70 84">
  <defs>
    <clipPath id="clip-path">
      <rect id="Rectangle_376" data-name="Rectangle 376" width="70" height="84" transform="translate(0 0)" fill="#15a964"/>
    </clipPath>
  </defs>
  <g id="Group_1321" data-name="Group 1321" clip-path="url(#clip-path)">
    <path id="Path_2079" data-name="Path 2079" d="M65.19,65a23.645,23.645,0,0,0-.223-25.86l-6.256-9.385V23.648A2.446,2.446,0,0,0,56.264,21.2H55.3a20.123,20.123,0,0,0-4.063-9.947A20.591,20.591,0,0,0,42.4,4.644v-2.2A2.446,2.446,0,0,0,39.956,0H30.171a2.446,2.446,0,0,0-2.446,2.446v2.2a20.589,20.589,0,0,0-8.839,6.611A20.125,20.125,0,0,0,14.823,21.2h-.961a2.446,2.446,0,0,0-2.446,2.446v6.109L5.16,39.142A23.645,23.645,0,0,0,4.937,65,28.451,28.451,0,0,0,0,81.053,2.461,2.461,0,0,0,2.447,83.5H67.68a2.446,2.446,0,0,0,2.446-2.446A28.45,28.45,0,0,0,65.19,65ZM55.369,33.565l5.527,8.29a18.748,18.748,0,0,1,.979,19.122,28.419,28.419,0,0,0-12.222-7.3,18.664,18.664,0,0,0,4.164-11.769v-7.72q.776-.3,1.551-.629M27.725,10.022v2.21a2.446,2.446,0,1,0,4.893,0V4.894H37.51v7.339a2.446,2.446,0,1,0,4.893,0v-2.21A15.584,15.584,0,0,1,50.358,21.2H19.769A15.584,15.584,0,0,1,27.725,10.022ZM16.309,26.094H53.818V28.91a45.285,45.285,0,0,1-37.509,0ZM9.231,41.855l5.527-8.29q.775.326,1.551.629v7.72a18.665,18.665,0,0,0,4.164,11.769,28.423,28.423,0,0,0-12.222,7.3A18.747,18.747,0,0,1,9.231,41.855ZM5.019,78.607A23.628,23.628,0,0,1,16.2,60.877L23.3,78.607Zm27.6,0H28.566L20.631,58.771a23.626,23.626,0,0,1,4.308-1.077,18.635,18.635,0,0,0,7.678,2.815ZM21.2,41.913v-6.07a50.191,50.191,0,0,0,13.862,1.98,50.191,50.191,0,0,0,13.862-1.98v6.07a13.862,13.862,0,1,1-27.724,0M37.51,78.607v-18.1a18.635,18.635,0,0,0,7.678-2.815A23.616,23.616,0,0,1,49.5,58.771L41.562,78.607Zm9.321,0,7.092-17.73a23.63,23.63,0,0,1,11.186,17.73Z" transform="translate(0 0.5)" fill="#15a964"/>
  </g>
</svg>
