<svg xmlns="http://www.w3.org/2000/svg" width="72.518" height="58.015" viewBox="0 0 72.518 58.015">
  <path id="Icon_awesome-truck" data-name="Icon awesome-truck" d="M70.705,39.885H68.892V27.636a5.439,5.439,0,0,0-1.6-3.841l-11.32-11.32a5.439,5.439,0,0,0-3.841-1.6h-5V5.439A5.44,5.44,0,0,0,41.7,0H5.439A5.44,5.44,0,0,0,0,5.439V41.7a5.44,5.44,0,0,0,5.439,5.439H7.252a10.878,10.878,0,0,0,21.755,0h14.5a10.878,10.878,0,0,0,21.755,0h5.439a1.818,1.818,0,0,0,1.813-1.813V41.7A1.818,1.818,0,0,0,70.705,39.885ZM18.13,52.576a5.439,5.439,0,1,1,5.439-5.439A5.44,5.44,0,0,1,18.13,52.576Zm36.259,0a5.439,5.439,0,1,1,5.439-5.439A5.44,5.44,0,0,1,54.389,52.576Zm9.065-23.568H47.137V16.317h5l11.32,11.32Z" fill="#15a964"/>
</svg>
