<svg xmlns="http://www.w3.org/2000/svg" width="54.172" height="67.715" viewBox="0 0 54.172 67.715">
  <path id="products" d="M917.086,419c-8.849,0-13.378,7.161-13.527,15.976-.01.092-.015.182-.016.277v2.707H892.708A2.708,2.708,0,0,0,890,440.668v21.669a124.694,124.694,0,0,0,.365,12.813c.373,3.309,1.169,6.055,3.164,8.047s4.739,2.787,8.047,3.157a74.7,74.7,0,0,0,10.094.36h13.544a74.385,74.385,0,0,0,10.1-.365c3.309-.374,3.346-1.169,5.338-3.163s2.787-4.741,3.158-8.048a125.341,125.341,0,0,0,.36-12.8V440.668a2.708,2.708,0,0,0-2.709-2.709H930.629v-2.709a2.764,2.764,0,0,0-.016-.307c-.167-8.8-4.689-15.944-13.527-15.944Zm0,5.417c6.01,0,8.125,4.823,8.125,10.835v2.707H908.96v-2.707C908.96,429.24,911.076,424.417,917.086,424.417Zm-21.669,18.96h8.126v5.418a2.709,2.709,0,0,0,5.417.076c0-.025,0-.052,0-.076v-5.418h16.252v5.418a2.709,2.709,0,0,0,5.417.076c0-.025,0-.052,0-.076v-5.418h8.126v18.96c0,5.4-.016,9.418-.328,12.2s-.881,4.1-1.6,4.823.665,1.295-2.116,1.609a71.53,71.53,0,0,1-9.5.328H911.668a71.472,71.472,0,0,1-9.49-.328c-2.781-.312-4.1-.88-4.825-1.6s-1.294-2.044-1.608-4.825-.328-6.8-.328-12.205v-18.96Z" transform="translate(-890 -418.999)" fill="#15a964"/>
</svg>
