<svg xmlns="http://www.w3.org/2000/svg" xmlns:xlink="http://www.w3.org/1999/xlink" width="69" height="83" viewBox="0 0 69 83">
  <defs>
    <clipPath id="clip-path">
      <rect id="Rectangle_379" data-name="Rectangle 379" width="69" height="83" transform="translate(0.342 0)" fill="#15a964"/>
    </clipPath>
  </defs>
  <g id="Group_1323" data-name="Group 1323" transform="translate(-0.342)" clip-path="url(#clip-path)">
    <path id="Path_2118" data-name="Path 2118" d="M62.425,93.955h19.4a2.425,2.425,0,0,0,2.425-2.425V89.913a12.13,12.13,0,0,0-5.8-10.339,8.043,8.043,0,0,0,1.755-5.021V72.935a2.425,2.425,0,1,0,0-4.851,8.085,8.085,0,0,0-16.169,0,2.425,2.425,0,0,0,0,4.851v1.617A8.043,8.043,0,0,0,65.8,79.574,12.13,12.13,0,0,0,60,89.913V91.53a2.425,2.425,0,0,0,2.425,2.425m9.7-29.1a3.238,3.238,0,0,1,3.234,3.234H68.893a3.238,3.238,0,0,1,3.234-3.234m-3.234,8.085h6.468v1.617a3.234,3.234,0,0,1-6.468,0Zm3.234,9.7A7.287,7.287,0,0,1,79.358,89.1H64.9a7.286,7.286,0,0,1,7.231-6.468" transform="translate(-50.298 -50.085)" fill="#15a964"/>
    <path id="Path_2119" data-name="Path 2119" d="M67.276,300H62.425a2.425,2.425,0,1,0,0,4.851h4.851a2.425,2.425,0,1,0,0-4.851" transform="translate(-50.298 -251.279)" fill="#15a964"/>
    <path id="Path_2120" data-name="Path 2120" d="M173.445,300h-21.02a2.425,2.425,0,1,0,0,4.851h21.02a2.425,2.425,0,1,0,0-4.851" transform="translate(-125.746 -251.279)" fill="#15a964"/>
    <path id="Path_2121" data-name="Path 2121" d="M67.276,360H62.425a2.425,2.425,0,1,0,0,4.851h4.851a2.425,2.425,0,1,0,0-4.851" transform="translate(-50.298 -301.577)" fill="#15a964"/>
    <path id="Path_2122" data-name="Path 2122" d="M173.445,360h-21.02a2.425,2.425,0,1,0,0,4.851h21.02a2.425,2.425,0,1,0,0-4.851" transform="translate(-125.746 -301.577)" fill="#15a964"/>
    <path id="Path_2123" data-name="Path 2123" d="M240.51,60h-8.085a2.425,2.425,0,1,0,0,4.851h8.085a2.425,2.425,0,0,0,0-4.851" transform="translate(-192.811 -50.085)" fill="#15a964"/>
    <path id="Path_2124" data-name="Path 2124" d="M240.51,120h-8.085a2.425,2.425,0,1,0,0,4.851h8.085a2.425,2.425,0,0,0,0-4.851" transform="translate(-192.811 -100.383)" fill="#15a964"/>
    <path id="Path_2125" data-name="Path 2125" d="M240.51,180h-8.085a2.425,2.425,0,1,0,0,4.851h8.085a2.425,2.425,0,0,0,0-4.851" transform="translate(-192.811 -150.682)" fill="#15a964"/>
    <path id="Path_2126" data-name="Path 2126" d="M67.426,10.025h-7.6v-7.6A2.425,2.425,0,0,0,57.4,0H2.425A2.425,2.425,0,0,0,0,2.425V70.336a2.425,2.425,0,0,0,2.425,2.425h7.6v7.6a2.425,2.425,0,0,0,2.425,2.425H67.426a2.425,2.425,0,0,0,2.425-2.425V12.45a2.425,2.425,0,0,0-2.425-2.425M4.851,4.851H54.975v63.06H4.851ZM65,77.936H14.876V72.762H57.4a2.425,2.425,0,0,0,2.425-2.425V14.876H65Z" transform="translate(0 0.214)" fill="#15a964"/>
  </g>
</svg>
