<svg xmlns="http://www.w3.org/2000/svg" width="41.262" height="33.009" viewBox="0 0 41.262 33.009">
  <g id="Group_1622" data-name="Group 1622" transform="translate(-872.261 -2505)">
    <path id="Icon_awesome-solar-panel" data-name="Icon awesome-solar-panel" d="M27.85,28.884l-3.093,0V26.82H16.505V28.9l-3.093,0a1.032,1.032,0,0,0-1.03,1.031l0,2.046a1.032,1.032,0,0,0,1.033,1.033l14.439-.017a1.032,1.032,0,0,0,1.03-1.03l0-2.046a1.032,1.032,0,0,0-1.033-1.033Zm9.878-27.16A2.09,2.09,0,0,0,35.656,0H5.6A2.09,2.09,0,0,0,3.532,1.724C-.214,23.8,0,22.441,0,22.694a2.083,2.083,0,0,0,2.1,2.063H39.158a2.083,2.083,0,0,0,2.1-2.05c0-.263.216,1.093-3.53-20.983Zm-20.977,2.4h7.758l.63,6.189H16.122Zm-4.846,16.5H4.583L5.809,13.41h6.832Zm1.05-10.315H6.334l1.05-6.189h6.2Zm2.116,10.315.735-7.221h9.648l.735,7.221Zm12.6-16.5h6.2l1.05,6.189H28.305l-.63-6.189Zm1.68,16.5-.735-7.221h6.832l1.226,7.221H29.356Z" transform="translate(872.261 2505)" fill="#15a964"/>
  </g>
</svg>
