<svg xmlns="http://www.w3.org/2000/svg" width="36.746" height="41.652" viewBox="0 0 36.746 41.652">
  <path id="Icon_material-money-off" data-name="Icon material-money-off" d="M25.62,13.525c4.119,0,5.646,1.967,5.785,4.859h5.114a9.224,9.224,0,0,0-7.428-8.816V4.5H22.149v5a13.717,13.717,0,0,0-3.425,1.25l3.4,3.4A9.074,9.074,0,0,1,25.62,13.525ZM9.029,6.953,6.09,9.892l7.96,7.96c0,4.813,3.61,7.428,9.048,9.048l8.122,8.122c-.787,1.111-2.43,2.106-5.6,2.106-4.767,0-6.641-2.129-6.9-4.859H13.634c.278,5.068,4.073,7.914,8.515,8.863v5.021h6.942V41.177a11.577,11.577,0,0,0,5.669-2.592L39.9,43.722l2.939-2.939Z" transform="translate(-6.09 -4.5)" fill="#15a964"/>
</svg>
