<svg xmlns="http://www.w3.org/2000/svg" width="69.178" height="67.715" viewBox="0 0 69.178 67.715">
  <path id="Icon_metro-tools" data-name="Icon metro-tools" d="M73.062,16.444A17.224,17.224,0,0,1,48.649,38.051l-4.765,5.2,3.4,3.413,2.031-2.031a2.655,2.655,0,0,1,3.76,0L69.549,61.278a2.655,2.655,0,0,1,0,3.76L62.03,72.556a2.655,2.655,0,0,1-3.76,0L41.8,55.915a2.655,2.655,0,0,1,0-3.76L43.652,50.3l-3.24-3.248L17.63,71.942a5.315,5.315,0,0,1-7.519,0l-1.88-1.88a5.315,5.315,0,0,1,0-7.519L34.185,40.806,16.947,23.522l-5.444,0L5.2,13.389,10.273,8.31l10.361,6.341.068,5.331L38.14,37.488l5.073-4.247A17.241,17.241,0,0,1,63.639,7.064L52.468,18.08l9.4,9.4L73.062,16.444Zm-58.6,48.75a2.659,2.659,0,1,0,0,3.762A2.66,2.66,0,0,0,14.466,65.194Z" transform="translate(-5.203 -5.785)" fill="#15a964"/>
</svg>
