<svg xmlns="http://www.w3.org/2000/svg" width="84.686" height="50.83" viewBox="0 0 84.686 50.83">
  <path id="Icon_awesome-handshake" data-name="Icon awesome-handshake" d="M57.52,4.5H46.154A4.233,4.233,0,0,0,43.3,5.612L30.288,17.52c-.013.013-.026.04-.04.053a5.264,5.264,0,0,0-.278,7.41,5.519,5.519,0,0,0,7.423.357c.013-.013.04-.013.053-.026L48.02,15.628a2.117,2.117,0,1,1,2.858,3.123l-3.454,3.162L66.69,37.554a9.534,9.534,0,0,1,1.045,1.019v-25.6L60.511,5.744A4.2,4.2,0,0,0,57.52,4.5ZM71.983,13V42.622a4.23,4.23,0,0,0,4.234,4.234h8.469V13Zm6.351,29.627A2.117,2.117,0,1,1,80.452,40.5,2.123,2.123,0,0,1,78.334,42.622ZM0,46.843H8.469A4.23,4.23,0,0,0,12.7,42.609V13H0Zm6.351-8.455A2.117,2.117,0,1,1,4.234,40.5,2.123,2.123,0,0,1,6.351,38.388ZM64.03,40.849,44.275,24.811l-3.97,3.639A9.525,9.525,0,1,1,27.43,14.411L38.254,4.5H27.166a4.227,4.227,0,0,0-2.99,1.244l-7.238,7.225V42.6h2.421L31.334,53.433A8.467,8.467,0,0,0,43.243,52.2l.026-.026,2.369,2.051a4.917,4.917,0,0,0,6.92-.715L56.713,48.4l.715.582a4.228,4.228,0,0,0,5.954-.622l1.257-1.548a4.242,4.242,0,0,0-.609-5.968Z" transform="translate(0 -4.5)" fill="#15a964"/>
</svg>
