<svg xmlns="http://www.w3.org/2000/svg" width="70.89" height="56.712" viewBox="0 0 70.89 56.712">
  <path id="Icon_awesome-solar-panel" data-name="Icon awesome-solar-panel" d="M47.848,49.624l-5.313.006V46.078H28.357v3.568l-5.314.006a1.772,1.772,0,0,0-1.77,1.771l-.006,3.515a1.773,1.773,0,0,0,1.774,1.774l24.807-.029a1.772,1.772,0,0,0,1.77-1.77l0-3.515a1.773,1.773,0,0,0-1.774-1.774ZM64.82,2.962A3.591,3.591,0,0,0,61.26,0H9.629a3.591,3.591,0,0,0-3.56,2.962C-.368,40.89,0,38.555,0,38.989a3.579,3.579,0,0,0,3.611,3.544H67.275a3.579,3.579,0,0,0,3.61-3.521c0-.452.371,1.877-6.065-36.051ZM28.78,7.089H42.109l1.082,10.633H27.7ZM20.454,35.445H7.874L9.98,23.039H21.718Zm1.8-17.722H10.882l1.8-10.633H23.341Zm3.635,17.722,1.263-12.406H43.732L45,35.445ZM47.548,7.089H58.2l1.8,10.633H48.63L47.548,7.089Zm2.887,28.356L49.172,23.039H60.91l2.106,12.406H50.435Z" transform="translate(0)" fill="#15a964"/>
</svg>
