<svg xmlns="http://www.w3.org/2000/svg" width="58.84" height="58.836" viewBox="0 0 58.84 58.836">
  <path id="globe-Regular_1_" d="M598.394,1103.869a29.227,29.227,0,0,0-23.512-19.327,30.524,30.524,0,0,0-8.425,0,29.214,29.214,0,0,0-23.5,19.3,29.157,29.157,0,0,0-.009,19.623,29.227,29.227,0,0,0,23.512,19.327,30.4,30.4,0,0,0,4.212.293,29.909,29.909,0,0,0,4.212-.3,29.214,29.214,0,0,0,23.5-19.3,29.149,29.149,0,0,0,.009-19.62Zm-5.564-1.512h-9.182a49.148,49.148,0,0,0-4.354-12A24.643,24.643,0,0,1,592.83,1102.357Zm2.734,11.313a24.412,24.412,0,0,1-.969,6.792H584.478a44.282,44.282,0,0,0,0-13.579H594.6A24.424,24.424,0,0,1,595.564,1113.67Zm-34.133,6.792a40.913,40.913,0,0,1,0-13.579h18.482a41.026,41.026,0,0,1,0,13.579Zm-14.686,0a24.281,24.281,0,0,1,0-13.579h10.118a44.16,44.16,0,0,0,0,13.579Zm26.487-31.508A44.668,44.668,0,0,1,579,1102.36H562.336a44.679,44.679,0,0,1,5.772-13.4,25.471,25.471,0,0,1,2.562-.178A24.644,24.644,0,0,1,573.232,1088.954Zm-11.189,1.4a49.033,49.033,0,0,0-4.354,12H548.51A24.615,24.615,0,0,1,562.043,1090.357Zm-13.53,34.631h9.179a49.192,49.192,0,0,0,4.351,11.994A24.632,24.632,0,0,1,548.513,1124.988Zm19.6,13.4a44.748,44.748,0,0,1-5.769-13.394H579a44.763,44.763,0,0,1-5.766,13.394A26.028,26.028,0,0,1,568.108,1138.385Zm11.189-1.4a49.043,49.043,0,0,0,4.351-11.994h9.179A24.627,24.627,0,0,1,579.3,1136.982Z" transform="translate(-541.25 -1084.25)" fill="#15a964"/>
</svg>
