<svg xmlns="http://www.w3.org/2000/svg" width="46.759" height="68.031" viewBox="0 0 46.759 68.031">
  <path id="Icon_awesome-question" data-name="Icon awesome-question" d="M25.242,0C14.636,0,7.767,4.345,2.373,12.095a3.192,3.192,0,0,0,.688,4.368l5.732,4.346a3.189,3.189,0,0,0,4.418-.551c3.328-4.17,5.8-6.57,11-6.57,4.088,0,9.144,2.631,9.144,6.595,0,3-2.474,4.536-6.51,6.8C22.135,29.719,15.907,33,15.907,41.219v1.3A3.189,3.189,0,0,0,19.1,45.708h9.629a3.189,3.189,0,0,0,3.189-3.189v-.767c0-5.695,16.645-5.932,16.645-21.343C48.559,8.8,36.52,0,25.242,0ZM23.91,49.623a9.2,9.2,0,1,0,9.2,9.2A9.215,9.215,0,0,0,23.91,49.623Z" transform="translate(-1.8)" fill="#15a964"/>
</svg>
