<svg xmlns="http://www.w3.org/2000/svg" width="22.979" height="22.979" viewBox="0 0 22.979 22.979"><defs><style>.a{fill:#fff;}.b{fill:#58964f;}</style></defs><g transform="translate(-11201.33 -536.643)"><path class="a" d="M22.979,11.489A11.489,11.489,0,1,1,11.489,0,11.489,11.489,0,0,1,22.979,11.489" transform="translate(11201.33 536.643)"/><path class="b" d="M35.8,28.724a5.163,5.163,0,0,1-1.267.361c.2-.034.5-.4.623-.552a2.316,2.316,0,0,0,.421-.767c.011-.022.019-.049,0-.066a.072.072,0,0,0-.067.006,6.464,6.464,0,0,1-1.5.575.1.1,0,0,1-.1-.027,1.216,1.216,0,0,0-.131-.134,2.653,2.653,0,0,0-.728-.446,2.533,2.533,0,0,0-1.116-.18,2.668,2.668,0,0,0-1.059.3,2.724,2.724,0,0,0-.854.7,2.62,2.62,0,0,0-.51,1.022,2.764,2.764,0,0,0-.027,1.079c.008.06,0,.068-.052.06a8.023,8.023,0,0,1-5.163-2.628c-.06-.069-.093-.069-.142.005a2.618,2.618,0,0,0,.446,3.093c.1.1.205.192.317.279a2.636,2.636,0,0,1-1-.279c-.06-.038-.091-.016-.1.052a1.559,1.559,0,0,0,.016.3,2.648,2.648,0,0,0,1.631,2.11,1.55,1.55,0,0,0,.331.1,2.944,2.944,0,0,1-.977.03c-.071-.014-.1.022-.071.09a2.748,2.748,0,0,0,2.053,1.719c.093.016.186.016.279.038-.006.009-.011.009-.017.017a3.25,3.25,0,0,1-1.4.743,5.019,5.019,0,0,1-2.129.273c-.114-.017-.138-.016-.17,0s0,.047.033.077c.145.1.293.181.443.263a7.044,7.044,0,0,0,1.423.569,7.581,7.581,0,0,0,7.36-1.721,7.722,7.722,0,0,0,2.037-5.634c0-.081.1-.126.152-.168a4.974,4.974,0,0,0,1-1.042.316.316,0,0,0,.066-.2v-.011c0-.033,0-.023-.051,0" transform="translate(11183.371 515.471)"/></g></svg>