<svg xmlns="http://www.w3.org/2000/svg" width="23.148" height="23" viewBox="0 0 23.148 23"><defs><style>.a{fill:#fff;}.b{fill:#58964f;}.c{fill:none;}</style></defs><g transform="translate(-11104.65 -536.643)"><path class="a" d="M22.979,11.489A11.489,11.489,0,1,1,11.489,0,11.489,11.489,0,0,1,22.979,11.489" transform="translate(11104.82 536.643)"/><path class="b" d="M34.627,33.482a2.759,2.759,0,0,0-2.759-2.759H24.814a2.759,2.759,0,0,0-2.759,2.759v3.283a2.759,2.759,0,0,0,2.759,2.759h7.055a2.759,2.759,0,0,0,2.759-2.759Zm-4.149,1.887-3.164,1.565c-.124.067-.545-.023-.545-.164V33.558c0-.143.425-.233.549-.162l3.028,1.648c.127.072.26.256.132.326" transform="translate(11087.833 512.979)"/><rect class="c" width="23" height="23" transform="translate(11104.65 536.643)"/></g></svg>