<svg xmlns="http://www.w3.org/2000/svg" width="18.688" height="18.688" viewBox="0 0 18.688 18.688">
  <path id="Icon_awesome-plus" data-name="Icon awesome-plus" d="M17.353,9.592H11.346V3.585A1.335,1.335,0,0,0,10.011,2.25H8.676A1.335,1.335,0,0,0,7.342,3.585V9.592H1.335A1.335,1.335,0,0,0,0,10.926v1.335A1.335,1.335,0,0,0,1.335,13.6H7.342V19.6a1.335,1.335,0,0,0,1.335,1.335h1.335A1.335,1.335,0,0,0,11.346,19.6V13.6h6.007a1.335,1.335,0,0,0,1.335-1.335V10.926A1.335,1.335,0,0,0,17.353,9.592Z" transform="translate(0 -2.25)" fill="#fff"/>
</svg>
