<svg xmlns="http://www.w3.org/2000/svg" width="16.958" height="17" viewBox="0 0 16.958 17">
  <g id="Group_1628" data-name="Group 1628" transform="translate(-646.442 -600.319)">
    <path id="Path_262" data-name="Path 262" d="M22.985,37.146,24.2,32.6a8.416,8.416,0,1,1,3.352,3.323Zm4.8-2.929.288.172a6.832,6.832,0,1,0-2.337-2.316l.177.29L25.23,34.9Z" transform="translate(623.457 580.173)" fill="#15a964"/>
    <path id="Path_263" data-name="Path 263" d="M45.569,40.747a1.412,1.412,0,0,0-1.2-.271c-.312.128-.512.617-.714.867a.3.3,0,0,1-.387.084A5.445,5.445,0,0,1,40.547,39.1a.333.333,0,0,1,.042-.455,1.836,1.836,0,0,0,.494-.8,1.754,1.754,0,0,0-.221-.949,2.249,2.249,0,0,0-.7-1.056.96.96,0,0,0-1.042.155,2.116,2.116,0,0,0-.734,1.676,2.373,2.373,0,0,0,.066.532,4.4,4.4,0,0,0,.51,1.176,9.344,9.344,0,0,0,.533.81,8.225,8.225,0,0,0,2.311,2.146,7,7,0,0,0,1.441.685,3.2,3.2,0,0,0,1.678.265,2.032,2.032,0,0,0,1.521-1.131.986.986,0,0,0,.07-.577c-.087-.4-.625-.634-.947-.826" transform="translate(612.559 569.136)" fill="#15a964" fill-rule="evenodd"/>
  </g>
</svg>
