<svg xmlns="http://www.w3.org/2000/svg" width="23" height="23" viewBox="0 0 23 23">
  <path id="Icon_material-phone-in-talk" data-name="Icon material-phone-in-talk" d="M26.222,20.472a14.516,14.516,0,0,1-4.562-.728,1.3,1.3,0,0,0-1.3.307l-2.811,2.811a19.225,19.225,0,0,1-8.421-8.421l2.811-2.824a1.227,1.227,0,0,0,.319-1.278,14.516,14.516,0,0,1-.728-4.562A1.282,1.282,0,0,0,10.25,4.5H5.778A1.282,1.282,0,0,0,4.5,5.778,21.72,21.72,0,0,0,26.222,27.5,1.282,1.282,0,0,0,27.5,26.222V21.75A1.282,1.282,0,0,0,26.222,20.472ZM24.944,16H27.5A11.5,11.5,0,0,0,16,4.5V7.056A8.938,8.938,0,0,1,24.944,16Zm-5.111,0h2.556A6.391,6.391,0,0,0,16,9.611v2.556A3.828,3.828,0,0,1,19.833,16Z" transform="translate(-4.5 -4.5)" fill="#fff"/>
</svg>
